# xmcd
#
# Track frame offsets:
#  150
#  11275
#  28269
#  44852
#  60297
#  77266
#  94497
#  109366
#  123711
#  140669
#  157675
#  172133
#
# Disc length: 2490 seconds
#
# Revision: 0
# Processed by: cddbd v1.5.2PL0 Copyright (c) Steve Scherf et al.
# Submitted via: Collectorz.com_Music_Collector 6.11
#
DISCID=a009b80c
DTITLE=Aigariņš - Saldais grēks
DYEAR=1900
DGENRE=
TTITLE0=Saldais grēks
TTITLE1=Neprātīgā sirds
TTITLE2=Īstā dzīve
TTITLE3=Raganas ķēķis
TTITLE4=Dzintara meitene
TTITLE5=Klaidoņa sapnis
TTITLE6=Ko tu raudi
TTITLE7=Tāpēc dzeram
TTITLE8=Pārāk maz
TTITLE9=Es negribu iet mājās
TTITLE10=Nāc, pieglaudies
TTITLE11=Zili vēji, zaļi vēji
EXTD=
EXTT0=
EXTT1=
EXTT2=
EXTT3=
EXTT4=
EXTT5=
EXTT6=
EXTT7=
EXTT8=
EXTT9=
EXTT10=
EXTT11=
PLAYORDER=
